<?xml version="1.0" encoding="UTF-8"?>
<svg xmlns="http://www.w3.org/2000/svg" viewBox="0 0 640 200" width="640" height="200" role="img" aria-label="Yel Électricité">
  <title>Yel Électricité</title>
  

  <g transform="translate(10,10)">
    <g stroke="#0D1B2A" stroke-width="1.2" fill="none" opacity="0.3">
      <path d="M20 50 H46"/><path d="M20 50 V30"/>
      <circle cx="20" cy="30" r="1.6" fill="#0D1B2A" stroke="none"/>
      <path d="M180 50 H154"/><path d="M180 50 V30"/>
      <circle cx="180" cy="30" r="1.6" fill="#0D1B2A" stroke="none"/>
      <path d="M130 180 H100"/>
      <circle cx="130" cy="180" r="1.6" fill="#0D1B2A" stroke="none"/>
      <path d="M70 180 H100"/>
      <circle cx="70" cy="180" r="1.6" fill="#0D1B2A" stroke="none"/>
    </g>

    <g fill="none" stroke="#0D1B2A" stroke-width="18" stroke-linecap="round" stroke-linejoin="round">
      <path d="M54 50 L100 108"/>
      <path d="M146 50 L100 108"/>
      <path d="M100 108 L100 166"/>
    </g>

    <g fill="#0D1B2A">
      <circle cx="54" cy="50" r="10"/>
      <circle cx="146" cy="50" r="10"/>
      <circle cx="100" cy="166" r="10"/>
    </g>

    <g>
      <rect x="92" y="100" width="16" height="16" rx="2.5" fill="#F5C518" stroke="#0D1B2A" stroke-width="2"/>
      <line x1="96" y1="116" x2="96" y2="120" stroke="#0D1B2A" stroke-width="2" stroke-linecap="round"/>
      <line x1="104" y1="116" x2="104" y2="120" stroke="#0D1B2A" stroke-width="2" stroke-linecap="round"/>
    </g>

    <g fill="#F5C518">
      <circle cx="54" cy="50" r="3"/>
      <circle cx="146" cy="50" r="3"/>
      <circle cx="100" cy="166" r="3"/>
    </g>
  </g>

  <line x1="225" y1="50" x2="225" y2="150" stroke="#0D1B2A" stroke-width="2" opacity="0.25"/>

  <g transform="translate(250.00,108.00) scale(0.042969,-0.042969)"><path d="M-20 1493H401L741 961L1081 1493H1503L934 629V0H549V629Z" fill="#0D1B2A"/></g>
<g transform="translate(313.72,108.00) scale(0.042969,-0.042969)"><path d="M188 1493H1227V1202H573V924H1188V633H573V291H1249V0H188Z" fill="#0D1B2A"/></g>
<g transform="translate(373.84,108.00) scale(0.042969,-0.042969)"><path d="M188 1493H573V291H1249V0H188Z" fill="#0D1B2A"/></g>
  <rect x="250" y="118" width="34" height="4" fill="#F5C518"/>
  <g transform="translate(250.00,162.00) scale(0.010742,-0.010742)"><path d="M201 1493H1145V1323H403V881H1114V711H403V170H1163V0H201ZM725 1899H910L682 1635H529Z" fill="#1A1D23"/></g>
<g transform="translate(268.90,162.00) scale(0.010742,-0.010742)"><path d="M201 1493H403V170H1130V0H201Z" fill="#1A1D23"/></g>
<g transform="translate(286.16,162.00) scale(0.010742,-0.010742)"><path d="M201 1493H1145V1323H403V881H1114V711H403V170H1163V0H201Z" fill="#1A1D23"/></g>
<g transform="translate(305.06,162.00) scale(0.010742,-0.010742)"><path d="M1319 1378V1165Q1217 1260 1101.5 1307.0Q986 1354 856 1354Q600 1354 464.0 1197.5Q328 1041 328 745Q328 450 464.0 293.5Q600 137 856 137Q986 137 1101.5 184.0Q1217 231 1319 326V115Q1213 43 1094.5 7.0Q976 -29 844 -29Q505 -29 310.0 178.5Q115 386 115 745Q115 1105 310.0 1312.5Q505 1520 844 1520Q978 1520 1096.5 1484.5Q1215 1449 1319 1378Z" fill="#1A1D23"/></g>
<g transform="translate(325.42,162.00) scale(0.010742,-0.010742)"><path d="M-6 1493H1257V1323H727V0H524V1323H-6Z" fill="#1A1D23"/></g>
<g transform="translate(343.86,162.00) scale(0.010742,-0.010742)"><path d="M909 700Q974 678 1035.5 606.0Q1097 534 1159 408L1364 0H1147L956 383Q882 533 812.5 582.0Q743 631 623 631H403V0H201V1493H657Q913 1493 1039.0 1386.0Q1165 1279 1165 1063Q1165 922 1099.5 829.0Q1034 736 909 700ZM403 1327V797H657Q803 797 877.5 864.5Q952 932 952 1063Q952 1194 877.5 1260.5Q803 1327 657 1327Z" fill="#1A1D23"/></g>
<g transform="translate(364.14,162.00) scale(0.010742,-0.010742)"><path d="M201 1493H403V0H201Z" fill="#1A1D23"/></g>
<g transform="translate(375.63,162.00) scale(0.010742,-0.010742)"><path d="M1319 1378V1165Q1217 1260 1101.5 1307.0Q986 1354 856 1354Q600 1354 464.0 1197.5Q328 1041 328 745Q328 450 464.0 293.5Q600 137 856 137Q986 137 1101.5 184.0Q1217 231 1319 326V115Q1213 43 1094.5 7.0Q976 -29 844 -29Q505 -29 310.0 178.5Q115 386 115 745Q115 1105 310.0 1312.5Q505 1520 844 1520Q978 1520 1096.5 1484.5Q1215 1449 1319 1378Z" fill="#1A1D23"/></g>
<g transform="translate(395.99,162.00) scale(0.010742,-0.010742)"><path d="M201 1493H403V0H201Z" fill="#1A1D23"/></g>
<g transform="translate(407.48,162.00) scale(0.010742,-0.010742)"><path d="M-6 1493H1257V1323H727V0H524V1323H-6Z" fill="#1A1D23"/></g>
<g transform="translate(425.92,162.00) scale(0.010742,-0.010742)"><path d="M201 1493H1145V1323H403V881H1114V711H403V170H1163V0H201ZM725 1899H910L682 1635H529Z" fill="#1A1D23"/></g>
</svg>
